<?xml version="1.0" encoding="utf-8"?>
<!-- Generator: Adobe Illustrator 15.1.0, SVG Export Plug-In . SVG Version: 6.00 Build 0)  -->
<!DOCTYPE svg PUBLIC "-//W3C//DTD SVG 1.1//EN" "http://www.w3.org/Graphics/SVG/1.1/DTD/svg11.dtd">
<svg version="1.1" id="Layer_1" xmlns="http://www.w3.org/2000/svg" xmlns:xlink="http://www.w3.org/1999/xlink" x="0px" y="0px"
	 width="200px" height="200px" viewBox="0 0 200 200" enable-background="new 0 0 200 200" xml:space="preserve">
<polygon display="none" fill="none" stroke="#CC3026" stroke-miterlimit="10" points="455.089,124.83 298.235,-32.148 
	194.811,71.09 301.909,178.375 301.909,277.71 "/>
<path fill="#FFFFFF" d="M186.524,99.153l-24.341-24.361l0,0l-1.442-1.444l-2.152-2.154l0,0L127.719,40.3l0,0L91.404,3.957
	L79.215,16.124l0,0L27.49,67.754l33.494,33.552l20.139,20.307l-0.02,0.014l2.168,2.153l1.438,1.449l-0.03-0.009l4.73,4.741v64.41
	l55.629-55.074l0.114,0.156L186.524,99.153z M114.648,63.506L115.756,49l10.52-3.071l3.635,3.637l-9.053,12.448l-6.219,1.615
	L114.648,63.506L114.648,63.506z M86.673,81.307l-0.741-0.941l1.604,0.059L86.673,81.307z M109.591,64.061l-0.323,3.663
	l-11.859-0.353v-3.134l12.165-0.516L109.591,64.061z M108.887,72.714l-0.335,4.101l-11.143-0.789v-3.653L108.887,72.714z
	 M92.5,75.436l-0.447-3.225l0.451,0.013L92.5,75.436z M113.123,83.486l0.098-1.278l1.016-13.308l4.882-1.268l-3.327,16.626
	L113.123,83.486z M92.514,64.449l-0.003,2.773l-1.156-0.035l-0.371-2.673L92.514,64.449z M94.158,80.809l0.137,0.01l0.896,8.135
	l-5.018-4.077L94.158,80.809z M99.367,81.186l1.175,0.085l1.024,6.995l-1.37,0.445L99.367,81.186z M106.749,89.153l-1.102-7.523
	l2.589,0.177l-0.408,5.35l0,0v0.001l1.472,0.426l-2.094,2.355L106.749,89.153z M139.343,99.137l-14.934,1.137v-8.282l16.531,4.789
	L139.343,99.137z M143.378,102.182l13.021,1.024l-8.003,6.975l-6.481-5.866L143.378,102.182z M163.317,103.81l9.896,1.335
	l-14.63,14.258l-6.454-5.843L163.317,103.81z M146.645,97.424l2.412-3.514l-0.009-0.002l10.256-14.925l4.632,4.636l-3.369,14.9
	L146.645,97.424z M143.999,92.425l-23.388-6.771l0.313-1.568l24.266,6.606L143.999,92.425z M124.696,65.236l8.791-12.089l5.71,5.715
	l-15.354,10.644L124.696,65.236z M110.555,51.433L99.35,47.945l0.409-3.071l10.997,3.924L110.555,51.433z M98.679,52.973
	l11.485,3.575L110,58.7l-12.153,0.518L98.679,52.973z M85.134,58.744l-13.705-3.675l2.324-5.927l9.656-2.816L85.134,58.744z
	 M66.635,53.598l-13.213-4.665l10.555-10.535l5.131,8.895L66.635,53.598z M85.881,64.121l0.084,0.607h0.001l0.075,0.544
	l1.409,10.146l-11.035-0.403l-6.48-10.315l0.391-4.749L85.881,64.121z M69.25,73.01l1.121,1.783l-1.264-0.046L69.25,73.01z
	 M68.527,79.729l10.85,0.396l3.769,4.783l-0.382,0.389l0.095,0.077l-14.521,16.244l-2.803-2.826L68.527,79.729z M86.743,88.532
	l9.229,7.498l1.604,14.557l-12.222,8.191l-13.488-13.602L86.743,88.532z M100.755,93.787l2.444-0.793l4.959,8.528l-1.348,0.103
	l1.632,1.679l-6.183,4.143L100.755,93.787z M113.653,101.098l-3.822-6.61l4.731-5.362l4.847,1.415v10.115L113.653,101.098z
	 M135.75,104.429l-4.42,6.433l-6.056,2.587l-7.437-7.652L135.75,104.429z M116.938,122.954l6.514,7.855l-0.264,0.226l0.835,0.771
	l-6.597,16.189l-22.908-10.18l-0.109,0.151v-5.192L116.938,122.954z M127.947,135.44l7.19,6.671l-9.587,9.499L122,150.029
	L127.947,135.44z M127.336,127.633l-5.587-6.762l9.321-4.07l3.161,5.16L127.336,127.633z M135.633,113.463l3.426-4.989
	l15.937,14.425l-8.753,8.531L135.633,113.463z M177.76,100.713l-9.43-1.272l0.328-0.286l-3.055-0.24l2.513-11.113l11.293,11.303
	L177.76,100.713z M148.19,86.326l-26.282-7.155l0.521-2.604l20.36-14.112l12.92,12.93L148.19,86.326z M113.472,44.458l-13.037-4.652
	l2.321-17.416l19.49,19.506L113.472,44.458z M98.305,17.936l-5.531,41.497l-2.48,0.105l-3.755-27.032L84.51,17.902l6.891-6.876
	L98.305,17.936z M82.714,41.32l-9.655,2.816l-5.418-9.395l12.436-12.413l2.323,16.726L82.714,41.32z M49.498,52.85l15.31,5.405
	l-0.076,0.194l0.687,0.184l-1.5,18.21l-2.757,17.563L34.561,67.76L49.498,52.85z M111.984,106.948l8.363,8.606l-26.752,11.431
	l-4.637-4.604L111.984,106.948z M94.409,143.258l27.243,12.128l-27.243,26.993V143.258z M138.692,138.588l-7.897-7.327l6.073-4.995
	l5.387,8.793L138.692,138.588z"/>
</svg>
