<?xml version="1.0" encoding="utf-8"?>
<!-- Generator: Adobe Illustrator 15.1.0, SVG Export Plug-In . SVG Version: 6.00 Build 0)  -->
<!DOCTYPE svg PUBLIC "-//W3C//DTD SVG 1.1//EN" "http://www.w3.org/Graphics/SVG/1.1/DTD/svg11.dtd">
<svg version="1.1" id="Layer_1" xmlns="http://www.w3.org/2000/svg" xmlns:xlink="http://www.w3.org/1999/xlink" x="0px" y="0px"
	 width="200px" height="200px" viewBox="-50 -50 200 200" enable-background="new -50 -50 200 200" xml:space="preserve">
<g id="XMLID_46_">
	<g>
		<path fill="#FFFFFF" d="M14.618,24.097c4.531-5.236-14.128-54.515-0.663-59.465c9.766-3.566,9.106,14.3,9.766,19.51
			c0.96,10.723,3.242,23.718,6.818,33.465c3.242-15.599,2.923-31.523,3.574-47.435c0.316-4.884,1.621-15.921,8.118-15.282
			c15.275,0.983-2.272,52.315,7.803,58.814c6.818-7.803,8.776-27.946,11.373-38.019c0.98-4.223,2.304-17.574,11.693-12.021
			c7.16,4.234,1.298,30.875-0.965,39.315c-2.285,8.776-2.285,14.94-4.888,25.022c-0.633,6.827-1.934,14.3,2.603,19.498
			c8.128,0,26.828-23.083,35.925-15.939c6.173,4.553,3.102,10.407-1.129,13.167c-31.207,20.163-26.347,45.174-41.3,48.092
			c0,25.618-1.551,26.584,1.033,52.079c-16.24,2.695-33.231,2.029-48.779,0.999c0-0.012,0-0.012,0-0.012
			c1.064-13.441,0.631-3.207,1.622-18.12c0.746-11.582,0.964-21.939,1.301-33.315l-0.337-1.295
			C8.451,90.543,5.534,73.5,2.271,62.127c-3.568-12.362,0.651-23.405-3.905-35.42c-2.893-9.103-15.195-31.719-7.459-38.341
			c4.567-3.909,7.14-0.66,10.714,7.785C4.551,3.03,6.022,23.121,14.618,24.097z"/>
	</g>
</g>
</svg>
