<?xml version="1.0" encoding="utf-8"?>
<!-- Generator: Adobe Illustrator 15.1.0, SVG Export Plug-In . SVG Version: 6.00 Build 0)  -->
<!DOCTYPE svg PUBLIC "-//W3C//DTD SVG 1.1//EN" "http://www.w3.org/Graphics/SVG/1.1/DTD/svg11.dtd">
<svg version="1.1" id="Layer_1" xmlns="http://www.w3.org/2000/svg" xmlns:xlink="http://www.w3.org/1999/xlink" x="0px" y="0px"
	 width="200px" height="200px" viewBox="-50 -50 200 200" enable-background="new -50 -50 200 200" xml:space="preserve">
<path fill="#79A5D3" d="M112.931-48.5c-3.022,0-5.472,2.451-5.472,5.472v35.571c0,3.022,2.449,5.472,5.472,5.472H148.5V-48.5
	H112.931z"/>
<rect x="-43.029" y="121.14" fill="#79A5D3" width="186.055" height="27.36"/>
<path fill="#79A5D3" d="M88.304,8.959h-3.173L55.993,29.774c-3.6,2.667-6.771,3.96-9.685,3.96c-3.688,0-6.752-2.084-8.199-5.575
	c-1.976-4.773-0.645-12.261,2.78-15.88c0.337-0.387,1.41-1.615,2.909-3.321H30.846h-7.591H11.697v65.668h76.611V8.959H88.304z"/>
<polygon fill="#79A5D3" points="126.61,50.002 93.778,50.002 93.778,66.42 103.371,66.42 107.459,80.097 50,80.097 50,80.097 
	-7.459,80.097 -3.373,66.42 6.221,66.42 6.221,50.002 -26.611,50.002 -48.5,99.25 -48.5,99.25 -48.5,115.666 148.5,115.666 
	148.5,99.25 148.5,99.25 "/>
<path fill="#79A5D3" d="M101.985-43.028h-27.36L47.264-26.612c-4.994,3.231-8.211,5.472-10.946,13.681
	c-1.366,4.104-5.472,16.416-5.472,16.416h15.389l3.763-10.944c2.737-5.472,21.772-5.354,13.681,2.737L44.363,16.679
	c-2.255,2.256-4.056,17.935,8.368,8.696L91.037-1.987l2.737-8.209l8.207-8.209v-24.623H101.985z"/>
</svg>
