<?xml version="1.0" encoding="utf-8"?>
<!-- Generator: Adobe Illustrator 15.1.0, SVG Export Plug-In . SVG Version: 6.00 Build 0)  -->
<!DOCTYPE svg PUBLIC "-//W3C//DTD SVG 1.1//EN" "http://www.w3.org/Graphics/SVG/1.1/DTD/svg11.dtd">
<svg version="1.1" id="Layer_1" xmlns="http://www.w3.org/2000/svg" xmlns:xlink="http://www.w3.org/1999/xlink" x="0px" y="0px"
	 width="200px" height="200px" viewBox="-50 -50 200 200" enable-background="new -50 -50 200 200" xml:space="preserve">
<g id="XMLID_29_">
	<g>
		<g id="XMLID_68_">
			<g>
				<path fill="#79A5D3" d="M116.079,71.382v-6.625h-5.751v6.625H116.079z M116.079,79.01v-6.625h-5.751v6.625H116.079z
					 M117.746,79.01h5.75v-6.625h-5.75V79.01z M123.496,71.382v-6.625h-5.75v6.625H123.496z M134.869,90.593H99.037V58.219v-1.335
					v-5.957l17.042-12.167l8.707,6.085h0.501v-6.002h7.249l-0.08,11.333l15.581,10.876l-7.374,0.833v28.709H134.869z"/>
				<path fill="#79A5D3" d="M48.79,56.175V44.26H38.455v11.915H48.79z M48.79,69.884V57.967H38.455v11.917H48.79z M51.748,57.967
					v11.917h10.29V57.967H51.748z M62.038,56.175V44.26h-10.29v11.915H62.038z M106.163,37.592l-13.25,1.5v51.501H82.54H18.207
					H7.873v-53H-7.168L48.79-2.447L64.416,8.512V-2.447h14.039v20.709L106.163,37.592z"/>
				<path fill="#79A5D3" d="M-17.626,71.426v-6.627h-5.748v6.627H-17.626z M-17.626,79.048v-6.625h-5.748v6.625H-17.626z
					 M-10.212,79.048v-6.625h-5.748v6.625H-10.212z M-10.212,71.426v-6.627h-5.748v6.627H-10.212z M1.08,58.259v32.374h-35.833
					h-5.792V61.927l-7.373-0.834l15.583-10.876l-0.083-11.333h7.25v6h0.498l8.71-6.083L1.08,50.966v5.959V58.259z"/>
			</g>
		</g>
	</g>
</g>
</svg>
