<?xml version="1.0" encoding="utf-8"?>
<!-- Generator: Adobe Illustrator 15.1.0, SVG Export Plug-In . SVG Version: 6.00 Build 0)  -->
<!DOCTYPE svg PUBLIC "-//W3C//DTD SVG 1.1//EN" "http://www.w3.org/Graphics/SVG/1.1/DTD/svg11.dtd">
<svg version="1.1" id="Layer_1" xmlns="http://www.w3.org/2000/svg" xmlns:xlink="http://www.w3.org/1999/xlink" x="0px" y="0px"
	 width="200px" height="200px" viewBox="-50 -58.786 200 200" enable-background="new -50 -58.786 200 200" xml:space="preserve">
<path fill="#FFFFFF" d="M131.609,13.365c-6.195,0-11.222,5.026-11.222,11.198c0,6.17,5.026,11.198,11.222,11.198
	c6.167,0,11.193-5.028,11.193-11.198C142.803,18.392,137.776,13.365,131.609,13.365z"/>
<path fill="#FFFFFF" d="M-29.386,13.365c-6.193,0-11.221,5.026-11.221,11.198c0,6.17,5.028,11.198,11.221,11.198
	c6.17,0,11.198-5.028,11.198-11.198C-18.188,18.392-23.216,13.365-29.386,13.365z"/>
<path fill="#FFFFFF" d="M98.282-7.004c-9.194,0-16.651,7.481-16.651,16.677c0,9.184,7.457,16.653,16.651,16.653
	s16.676-7.469,16.676-16.653C114.956,0.477,107.477-7.004,98.282-7.004z"/>
<path fill="#FFFFFF" d="M150,94.338h-18.988V59.391c0-6.015-1.764-11.59-4.597-16.438c1.669-0.486,3.384-0.834,5.194-0.834
	c10.123,0,18.391,8.268,18.391,18.416V94.338z"/>
<path fill="#FFFFFF" d="M3.918-7.004c-9.196,0-16.677,7.481-16.677,16.677c0,9.184,7.479,16.653,16.677,16.653
	c9.172,0,16.651-7.469,16.651-16.653C20.569,0.477,13.09-7.004,3.918-7.004z"/>
<path fill="#FFFFFF" d="M-29.386,42.118c1.81,0,3.503,0.348,5.168,0.834c-2.857,4.849-4.596,10.424-4.596,16.438v34.947h-18.987
	V60.534C-47.801,50.386-39.535,42.118-29.386,42.118z"/>
<path fill="#FFFFFF" d="M51.088-40.308c-13.58,0-24.632,11.053-24.632,24.632c0,13.591,11.053,24.656,24.632,24.656
	c13.58,0,24.656-11.064,24.656-24.656C75.744-29.255,64.668-40.308,51.088-40.308z"/>
<path fill="#FFFFFF" d="M124.912,107.346H95.825V54.175c0-7.313-1.928-14.116-5.05-20.214c2.384-0.702,4.884-1.203,7.503-1.203
	c14.677,0,26.634,11.948,26.634,26.633V107.346z"/>
<path fill="#FFFFFF" d="M6.349,54.175v53.171h-29.065V59.391c0-14.688,11.935-26.635,26.634-26.635c2.619,0,5.098,0.5,7.479,1.203
	C8.28,40.059,6.349,46.858,6.349,54.175z"/>
<path fill="#FFFFFF" d="M12.447,122.735h77.281V54.175c0-21.31-17.346-38.641-38.641-38.641c-21.321,0-38.641,17.332-38.641,38.641
	V122.735z"/>
</svg>
